<mxfile host="Electron" agent="Mozilla/5.0 (Windows NT 10.0; Win64; x64) AppleWebKit/537.36 (KHTML, like Gecko) draw.io/24.7.17 Chrome/128.0.6613.36 Electron/32.0.1 Safari/537.36" version="24.7.17">
  <diagram name="Page-1" id="M2kGPNUqIAGfdRGaZKiz">
    <mxGraphModel dx="770" dy="718" grid="1" gridSize="10" guides="1" tooltips="1" connect="1" arrows="1" fold="1" page="1" pageScale="1" pageWidth="827" pageHeight="1169" math="1" shadow="0">
      <root>
        <mxCell id="0" />
        <mxCell id="1" parent="0" />
        <mxCell id="WuJC5fFpbwnU7M6LWd1O-1" value="\(p\)-value is the probabily of null-hypothesis" style="text;html=1;align=left;verticalAlign=middle;whiteSpace=wrap;rounded=0;" vertex="1" parent="1">
          <mxGeometry x="40" y="40" width="130" height="70" as="geometry" />
        </mxCell>
        <mxCell id="WuJC5fFpbwnU7M6LWd1O-3" value="null-hypotesis is our assumption that a property does not exist&lt;br&gt;&lt;br&gt;Example:&lt;div&gt;For a given time series, our time series is &lt;b&gt;not&lt;/b&gt; stationary&lt;/div&gt;" style="text;html=1;align=left;verticalAlign=middle;whiteSpace=wrap;rounded=0;" vertex="1" parent="1">
          <mxGeometry x="40" y="120" width="200" height="90" as="geometry" />
        </mxCell>
        <mxCell id="WuJC5fFpbwnU7M6LWd1O-4" value="probability&lt;br&gt;kebolehjadian&lt;br&gt;Seberapa jadi suatu kejadian terjadi.&lt;br&gt;Seberapa mungkin suatu peristiwa terjadi.&lt;br&gt;Seberapa mungkin ini di beri nilai dengan dari 0 sampai 1.&amp;nbsp;&lt;br&gt;Jika kebolehjadian itu bernilai 0, maka kejadian tidak pernah terjadi&lt;br&gt;Jika kebolehjadian itu bernilai 1, maka kejadian itu pasti terjadi.&lt;br&gt;Jika kebolehjadian itu bernilai 0.3, maka kejadian itu besar untuk tidak terjadi&amp;nbsp;&lt;br&gt;&lt;br&gt;possibility&lt;br&gt;kemungkinan" style="text;html=1;align=left;verticalAlign=middle;whiteSpace=wrap;rounded=0;" vertex="1" parent="1">
          <mxGeometry x="40" y="240" width="510" height="190" as="geometry" />
        </mxCell>
      </root>
    </mxGraphModel>
  </diagram>
</mxfile>
